<?xml version="1.0" encoding="utf-8"?>
<!-- Generator: Adobe Illustrator 19.2.1, SVG Export Plug-In . SVG Version: 6.00 Build 0)  -->
<svg version="1.1" id="Layer_2" xmlns="http://www.w3.org/2000/svg" xmlns:xlink="http://www.w3.org/1999/xlink" x="0px" y="0px"
	 viewBox="0 0 792.6 192.2" style="enable-background:new 0 0 792.6 192.2;" xml:space="preserve">
<style type="text/css">
	.st0{fill:#00A1DF;}
	.st1{fill:#FFFFFF;}
	.st2{fill-rule:evenodd;clip-rule:evenodd;fill:#FFFFFF;}
	.st3{fill:#7D868C;}
</style>
<g>
	<g>
		<path class="st0" d="M205.8,39.4c7.4-7.7,17.7-12.5,29.2-12.5c15.2,0,28.4,8.5,35.5,21c6.1-2.7,12.9-4.3,20.1-4.3
			c27.4,0,49.6,22.4,49.6,50s-22.2,50-49.6,50c-3.3,0-6.6-0.3-9.8-1c-6.2,11.1-18,18.6-31.6,18.6c-5.7,0-11.1-1.3-15.9-3.6
			c-6.3,14.8-21,25.2-38.1,25.2c-17.8,0-33-11.3-38.8-27.1c-2.5,0.5-5.2,0.8-7.9,0.8c-21.2,0-38.4-17.4-38.4-38.8
			c0-14.4,7.7-26.9,19.2-33.6c-2.4-5.4-3.7-11.4-3.7-17.7c0-24.6,20-44.6,44.7-44.6C184.8,21.9,197.6,28.7,205.8,39.4z"/>
	</g>
	<g>
		<g>
			<path class="st1" d="M143.4,105.3c-0.1,0.4,0.1,0.5,0.1,0.5c0.4,0.3,0.9,0.5,1.3,0.8c2.3,1.2,4.6,1.6,6.9,1.6
				c4.7,0,7.6-2.5,7.6-6.5v-0.1c0-3.7-3.3-5.1-6.4-6.1l-0.4-0.1c-2.3-0.8-4.4-1.4-4.4-3v-0.1c0-1.3,1.2-2.3,3-2.3c2,0,4.4,0.7,6,1.5
				c0,0,0.5,0.3,0.6-0.1c0.1-0.2,0.9-2.4,1-2.6c0.1-0.2-0.1-0.4-0.2-0.5c-1.8-1.1-4.2-1.8-6.8-1.8l-0.5,0c-4.3,0-7.3,2.6-7.3,6.3V93
				c0,3.9,3.3,5.2,6.4,6.1l0.5,0.2c2.3,0.7,4.2,1.3,4.2,2.9v0.1c0,1.5-1.3,2.5-3.3,2.5c-0.8,0-3.3,0-6.1-1.7
				c-0.3-0.2-0.5-0.3-0.8-0.5c-0.1-0.1-0.5-0.2-0.6,0.2L143.4,105.3z"/>
			<path class="st1" d="M212.5,105.3c-0.1,0.4,0.1,0.5,0.1,0.5c0.4,0.3,0.9,0.5,1.3,0.8c2.3,1.2,4.6,1.6,6.9,1.6
				c4.7,0,7.6-2.5,7.6-6.5v-0.1c0-3.7-3.3-5.1-6.4-6.1l-0.4-0.1c-2.3-0.8-4.4-1.4-4.4-3v-0.1c0-1.3,1.2-2.3,3-2.3c2,0,4.4,0.7,6,1.5
				c0,0,0.5,0.3,0.6-0.1c0.1-0.2,0.9-2.4,1-2.6c0.1-0.2-0.1-0.4-0.2-0.5c-1.8-1.1-4.2-1.8-6.8-1.8l-0.5,0c-4.3,0-7.3,2.6-7.3,6.3V93
				c0,3.9,3.3,5.2,6.4,6.1l0.5,0.2c2.3,0.7,4.2,1.3,4.2,2.9v0.1c0,1.5-1.3,2.5-3.3,2.5c-0.8,0-3.3,0-6.1-1.7
				c-0.3-0.2-0.5-0.3-0.8-0.5c-0.1-0.1-0.5-0.2-0.6,0.2L212.5,105.3z"/>
			<path class="st1" d="M263.6,93.2c-0.4-1.3-1-2.5-1.8-3.4c-0.8-1-1.8-1.7-3-2.3c-1.2-0.6-2.6-0.8-4.2-0.8c-1.6,0-3,0.3-4.2,0.8
				c-1.2,0.6-2.2,1.3-3,2.3c-0.8,1-1.4,2.1-1.8,3.4c-0.4,1.3-0.6,2.7-0.6,4.2c0,1.5,0.2,2.9,0.6,4.2c0.4,1.3,1,2.5,1.8,3.4
				c0.8,1,1.8,1.7,3,2.3c1.2,0.5,2.6,0.8,4.2,0.8s3-0.3,4.2-0.8c1.2-0.5,2.2-1.3,3-2.3c0.8-1,1.4-2.1,1.8-3.4
				c0.4-1.3,0.6-2.7,0.6-4.2C264.1,95.9,263.9,94.5,263.6,93.2 M259.6,97.4c0,2.3-0.4,4.1-1.3,5.4c-0.8,1.3-2.1,1.9-3.8,1.9
				c-1.8,0-3-0.6-3.8-1.9c-0.8-1.3-1.2-3.1-1.2-5.4c0-2.3,0.4-4.1,1.2-5.3c0.8-1.2,2.1-1.9,3.8-1.9c1.7,0,3,0.6,3.8,1.9
				C259.2,93.3,259.6,95.1,259.6,97.4"/>
			<path class="st2" d="M295.9,104c-0.1-0.4-0.5-0.2-0.5-0.2c-0.6,0.2-1.2,0.4-1.8,0.5c-0.7,0.1-1.4,0.2-2.2,0.2
				c-1.9,0-3.4-0.6-4.5-1.7c-1.1-1.1-1.7-2.9-1.7-5.4c0-2.2,0.5-3.9,1.5-5.2c1-1.3,2.4-1.9,4.4-1.9c1.6,0,2.9,0.2,4.2,0.6
				c0,0,0.3,0.1,0.5-0.3c0.3-1,0.6-1.6,1-2.7c0.1-0.3-0.2-0.4-0.2-0.5c-0.5-0.2-1.7-0.5-2.6-0.7c-0.9-0.1-1.8-0.2-3-0.2
				c-1.7,0-3.1,0.3-4.4,0.8c-1.3,0.6-2.3,1.3-3.2,2.3c-0.8,1-1.5,2.1-1.9,3.4c-0.4,1.3-0.6,2.7-0.6,4.2c0,3.3,0.9,5.9,2.6,7.8
				c1.7,1.9,4.4,2.9,7.8,2.9c2,0,4.1-0.4,5.6-1c0,0,0.3-0.1,0.2-0.5L295.9,104z"/>
			<path class="st2" d="M316,92.4c-0.3-1.3-1.2-2.5-1.7-3.1c-0.9-0.9-1.7-1.6-2.5-1.9c-1.1-0.5-2.4-0.8-3.8-0.8
				c-1.7,0-3.2,0.3-4.4,0.9c-1.2,0.6-2.3,1.4-3.1,2.3c-0.8,1-1.4,2.1-1.8,3.5c-0.4,1.3-0.6,2.7-0.6,4.3c0,1.5,0.2,3,0.6,4.3
				c0.4,1.3,1.1,2.4,1.9,3.4c0.9,1,2,1.7,3.4,2.2c1.3,0.5,3,0.8,4.8,0.8c3.9,0,5.9-0.9,6.7-1.3c0.1-0.1,0.3-0.2,0.1-0.6l-0.9-2.4
				c-0.1-0.4-0.5-0.2-0.5-0.2c-1,0.4-2.3,1-5.5,1c-2.1,0-3.6-0.6-4.6-1.6c-1-1-1.5-2.4-1.5-4.4l13.3,0c0,0,0.4,0,0.4-0.3
				C316.4,98,316.9,95.4,316,92.4z M302.8,95.2c0.2-1.3,0.5-2.3,1.1-3.1c0.8-1.2,2.1-1.9,3.8-1.9c1.7,0,2.9,0.7,3.7,1.9
				c0.5,0.8,0.8,1.9,0.9,3.1L302.8,95.2z"/>
			<path class="st2" d="M209.3,92.4c-0.3-1.3-1.2-2.5-1.7-3.1c-0.9-0.9-1.7-1.6-2.5-1.9c-1.1-0.5-2.4-0.8-3.8-0.8
				c-1.7,0-3.2,0.3-4.4,0.9c-1.2,0.6-2.3,1.4-3.1,2.3c-0.8,1-1.4,2.1-1.8,3.5c-0.4,1.3-0.6,2.7-0.6,4.3c0,1.5,0.2,3,0.6,4.3
				c0.4,1.3,1.1,2.4,1.9,3.4c0.9,1,2,1.7,3.4,2.2c1.3,0.5,3,0.8,4.8,0.8c3.9,0,5.9-0.9,6.7-1.3c0.1-0.1,0.3-0.2,0.1-0.6l-0.9-2.4
				c-0.1-0.4-0.5-0.2-0.5-0.2c-1,0.4-2.3,1-5.5,1c-2.1,0-3.6-0.6-4.6-1.6c-1-1-1.5-2.4-1.5-4.4l13.3,0c0,0,0.4,0,0.4-0.3
				C209.7,98,210.1,95.4,209.3,92.4z M196,95.2c0.2-1.3,0.5-2.3,1.1-3.1c0.8-1.2,2.1-1.9,3.8-1.9c1.8,0,2.9,0.7,3.7,1.9
				c0.5,0.8,0.8,1.9,0.9,3.1L196,95.2z"/>
			<path class="st1" d="M172.5,94.6c-0.5,0-1.2-0.1-2.1-0.1c-1.1,0-2.2,0.1-3.3,0.4c-1,0.3-2,0.7-2.8,1.3c-0.8,0.6-1.5,1.3-1.9,2.2
				c-0.5,0.9-0.7,1.9-0.7,3.1c0,1.2,0.2,2.2,0.6,3c0.4,0.8,1,1.5,1.7,2.1c0.7,0.5,1.7,0.9,2.7,1.2c1,0.2,2.2,0.4,3.5,0.4
				c1.4,0,2.7-0.1,4-0.3c1.3-0.2,2.9-0.5,3.4-0.7c0.4-0.1,0.9-0.2,0.9-0.2c0.3-0.1,0.3-0.4,0.3-0.4l0-12.2c0-2.7-0.7-4.7-2.1-5.9
				c-1.4-1.2-3.5-1.8-6.1-1.8c-1,0-2.6,0.1-3.6,0.3c0,0-2.9,0.6-4.1,1.5c0,0-0.3,0.2-0.1,0.5l0.9,2.5c0.1,0.3,0.4,0.2,0.4,0.2
				s0.1,0,0.2-0.1c2.6-1.4,5.8-1.4,5.8-1.4c1.4,0,2.5,0.3,3.3,0.9c0.7,0.6,1.1,1.4,1.1,3.2v0.6C173.6,94.7,172.5,94.6,172.5,94.6z
				 M167.2,104c-0.5-0.4-0.6-0.5-0.8-0.8c-0.3-0.4-0.4-1-0.4-1.7c0-1.2,0.4-2,1.2-2.6c0,0,1.1-1,3.9-1c1.9,0,3.6,0.3,3.6,0.3v6.1h0
				c0,0-1.7,0.4-3.6,0.5C168.4,104.9,167.2,104,167.2,104z"/>
			<path class="st2" d="M280,87.7c0.1-0.3-0.1-0.4-0.2-0.5c-0.2-0.1-1.4-0.3-2.2-0.4c-1.7-0.1-2.6,0.2-3.4,0.6
				c-0.8,0.4-1.7,1-2.3,1.7l0-1.6c0-0.2-0.2-0.4-0.4-0.4h-3.4c-0.2,0-0.4,0.2-0.4,0.4v19.9c0,0.2,0.2,0.4,0.4,0.4h3.5
				c0.2,0,0.4-0.2,0.4-0.4v-9.9c0-1.3,0.1-2.7,0.4-3.5c0.3-0.8,0.7-1.5,1.2-2c0.5-0.5,1-0.8,1.6-1c0.6-0.2,1.3-0.3,1.8-0.3
				c0.7,0,1.5,0.2,1.5,0.2c0.3,0,0.4-0.1,0.5-0.4C279.3,89.9,279.9,88.1,280,87.7z"/>
			<path class="st2" d="M247.2,78.5c-0.4-0.1-0.8-0.2-1.3-0.3c-0.5-0.1-1.1-0.1-1.8-0.1c-2.4,0-4.3,0.7-5.6,2
				c-1.3,1.3-2.2,3.4-2.7,6l-0.2,0.9h-3c0,0-0.4,0-0.4,0.4l-0.5,2.8c0,0.3,0.1,0.4,0.4,0.4h2.9l-3,16.7c-0.2,1.3-0.5,2.4-0.8,3.3
				c-0.3,0.8-0.6,1.4-0.9,1.9c-0.3,0.4-0.7,0.8-1.2,0.9c-0.5,0.2-1,0.2-1.6,0.2c-0.3,0-0.8-0.1-1.1-0.1c-0.3-0.1-0.5-0.1-0.7-0.2
				c0,0-0.3-0.1-0.5,0.2c-0.1,0.3-0.9,2.4-1,2.7c-0.1,0.3,0,0.5,0.2,0.5c0.4,0.1,0.7,0.2,1.2,0.4c0.7,0.2,1.4,0.2,2,0.2
				c1.2,0,2.3-0.2,3.3-0.5c0.9-0.3,1.7-0.9,2.5-1.7c0.8-0.9,1.3-1.8,1.7-3c0.5-1.2,0.9-2.7,1.2-4.5l3-17h4.4c0,0,0.4,0,0.4-0.4
				l0.5-2.8c0-0.3-0.1-0.4-0.4-0.4h-4.3c0-0.1,0.2-1.6,0.7-3c0.2-0.6,0.6-1.1,0.9-1.4c0.3-0.3,0.7-0.6,1.1-0.7
				c0.4-0.1,0.9-0.2,1.4-0.2c0.4,0,0.8,0,1.1,0.1c0.4,0.1,0.6,0.1,0.7,0.2c0.4,0.1,0.5,0,0.6-0.2l1-2.8
				C247.5,78.7,247.2,78.5,247.2,78.5z"/>
			<path class="st2" d="M187.6,107.3c0,0.2-0.2,0.4-0.4,0.4h-3.5c-0.2,0-0.4-0.2-0.4-0.4V78.9c0-0.2,0.2-0.4,0.4-0.4h3.5
				c0.2,0,0.4,0.2,0.4,0.4V107.3z"/>
		</g>
	</g>
	<g>
		<path class="st3" d="M371.1,77.6c1.8,0,3.6,0.3,5.3,0.8c1.7,0.6,3.2,1.3,4.5,2.3l-2,3.4c-2.2-1.6-4.8-2.5-7.8-2.5
			c-3.1,0-5.5,1-7.1,3.1c-1.6,2.1-2.4,4.8-2.4,8.3c0,3.4,0.8,6.1,2.4,8.2c1.6,2.1,4,3.1,7.1,3.1c2.6,0,5.3-0.8,7.9-2.5l1.8,3.4
			c-2.9,2.1-6.2,3.2-10,3.2c-3.3,0-6-0.7-8.1-2.2c-2.1-1.5-3.6-3.4-4.6-5.7c-0.9-2.3-1.4-4.8-1.4-7.5c0-4.7,1.3-8.4,3.9-11.2
			C363.1,79,366.6,77.6,371.1,77.6z"/>
		<path class="st3" d="M411.9,93c0,3-0.6,5.7-1.8,8.1c-1.2,2.4-2.9,4.2-5.1,5.5c-2.2,1.3-4.8,2-7.9,2c-3,0-5.7-0.7-7.9-2
			c-2.2-1.3-3.9-3.2-5.1-5.5c-1.2-2.3-1.7-5-1.7-8c0-4.7,1.3-8.4,3.9-11.2c2.6-2.8,6.2-4.2,10.8-4.2c3.1,0,5.8,0.6,8,1.9
			c2.2,1.3,3.9,3.1,5,5.4C411.4,87.3,411.9,89.9,411.9,93z M387.6,93c0,3.5,0.8,6.3,2.4,8.4c1.6,2.1,4,3.2,7.2,3.2
			c3.3,0,5.7-1.1,7.3-3.2c1.6-2.1,2.4-4.9,2.4-8.4c0-3.5-0.8-6.3-2.4-8.3c-1.6-2.1-4-3.1-7.3-3.1c-3.3,0-5.7,1-7.2,3.1
			C388.4,86.7,387.6,89.5,387.6,93z"/>
		<path class="st3" d="M417.5,85c0-2.1-0.1-4.3-0.4-6.6h4.7c0.2,1,0.3,2.4,0.4,4.1h0.1c0.9-1.5,2.2-2.6,3.9-3.6
			c1.7-0.9,3.6-1.4,5.8-1.4c2.5,0,4.5,0.5,6.1,1.6c1.6,1.1,2.7,2.5,3.4,4.3h0.1c1-1.8,2.4-3.3,4.1-4.3c1.7-1.1,3.8-1.6,6.2-1.6
			c2.4,0,4.4,0.5,6,1.6c1.6,1.1,2.8,2.4,3.6,4.1c0.8,1.7,1.2,3.6,1.2,5.6v18.7h-4.9V89.7c0-2.3-0.5-4.2-1.6-5.7
			c-1.1-1.5-2.8-2.3-5.3-2.3c-1.8,0-3.3,0.5-4.5,1.4c-1.3,0.9-2.2,2.1-2.9,3.7c-0.7,1.5-1,3.2-1,4.9v16h-4.9V89.5
			c0-2.2-0.6-4.1-1.7-5.6c-1.1-1.5-2.9-2.3-5.2-2.3c-2.5,0-4.5,0.9-6,2.7c-1.5,1.8-2.2,4-2.2,6.6v16.8h-4.9V85z"/>
		<path class="st3" d="M469.7,85c0-2.1-0.1-4.3-0.4-6.6h4.7c0.2,1,0.3,2.4,0.4,4.1h0.1c0.9-1.5,2.2-2.6,3.9-3.6
			c1.7-0.9,3.6-1.4,5.8-1.4c2.5,0,4.5,0.5,6.1,1.6c1.6,1.1,2.7,2.5,3.4,4.3h0.1c1-1.8,2.4-3.3,4.1-4.3c1.7-1.1,3.8-1.6,6.2-1.6
			s4.4,0.5,6,1.6c1.6,1.1,2.8,2.4,3.6,4.1c0.8,1.7,1.1,3.6,1.1,5.6v18.7h-4.9V89.7c0-2.3-0.5-4.2-1.6-5.7c-1.1-1.5-2.8-2.3-5.3-2.3
			c-1.8,0-3.3,0.5-4.5,1.4c-1.3,0.9-2.2,2.1-2.9,3.7c-0.7,1.5-1,3.2-1,4.9v16h-4.9V89.5c0-2.2-0.6-4.1-1.7-5.6
			c-1.1-1.5-2.9-2.3-5.2-2.3c-2.5,0-4.5,0.9-6,2.7c-1.5,1.8-2.2,4-2.2,6.6v16.8h-4.9V85z"/>
		<path class="st3" d="M547,94.8h-21.7c0.2,3,1.1,5.4,2.7,7.1c1.6,1.8,3.9,2.6,6.9,2.6c1.8,0,3.3-0.2,4.7-0.7
			c1.4-0.5,2.8-1.2,4.2-2.2l2.2,3.2c-1.6,1.2-3.4,2.1-5.3,2.7c-1.9,0.6-3.9,0.9-6.2,0.9c-4.5,0-8-1.4-10.5-4.3
			c-2.5-2.8-3.8-6.6-3.8-11.3c0-3,0.5-5.7,1.6-8c1.1-2.3,2.6-4.1,4.7-5.4c2-1.3,4.5-1.9,7.4-1.9c4.3,0,7.5,1.4,9.7,4.1
			c2.2,2.8,3.4,6.4,3.4,11C547.1,93.7,547.1,94.4,547,94.8z M542.3,91c-0.1-2.9-0.8-5.3-2.2-7c-1.4-1.8-3.5-2.6-6.2-2.6
			c-2.7,0-4.8,0.9-6.3,2.7c-1.5,1.8-2.3,4.1-2.4,6.9H542.3z"/>
		<path class="st3" d="M552.7,85c0-2.1-0.1-4.3-0.4-6.6h4.7c0.2,1.3,0.3,2.9,0.4,4.7h0.1c1.7-3.6,4.8-5.5,9.2-5.5
			c0.3,0,0.9,0.1,1.7,0.2L568,82c-0.4-0.1-1-0.1-1.8-0.1c-2.8,0-4.9,0.9-6.4,2.8c-1.5,1.9-2.2,4.3-2.2,7.3v15.7h-4.9V85z"/>
		<path class="st3" d="M583.9,77.6c1.8,0,3.6,0.3,5.3,0.8c1.7,0.6,3.2,1.3,4.5,2.3l-2,3.4c-2.2-1.6-4.8-2.5-7.8-2.5
			c-3.1,0-5.5,1-7.1,3.1c-1.6,2.1-2.4,4.8-2.4,8.3c0,3.4,0.8,6.1,2.4,8.2c1.6,2.1,4,3.1,7.1,3.1c2.6,0,5.3-0.8,7.9-2.5l1.8,3.4
			c-2.9,2.1-6.2,3.2-10,3.2c-3.3,0-6-0.7-8.1-2.2c-2.1-1.5-3.6-3.4-4.6-5.7c-0.9-2.3-1.4-4.8-1.4-7.5c0-4.7,1.3-8.4,3.9-11.2
			C575.9,79,579.4,77.6,583.9,77.6z"/>
		<path class="st3" d="M622.1,94.8h-21.7c0.2,3,1.1,5.4,2.7,7.1c1.6,1.8,3.9,2.6,6.9,2.6c1.8,0,3.3-0.2,4.7-0.7
			c1.4-0.5,2.8-1.2,4.2-2.2l2.2,3.2c-1.6,1.2-3.4,2.1-5.3,2.7c-1.9,0.6-3.9,0.9-6.2,0.9c-4.5,0-8-1.4-10.5-4.3
			c-2.5-2.8-3.8-6.6-3.8-11.3c0-3,0.5-5.7,1.6-8c1.1-2.3,2.6-4.1,4.7-5.4c2-1.3,4.5-1.9,7.4-1.9c4.3,0,7.5,1.4,9.7,4.1
			c2.2,2.8,3.4,6.4,3.4,11C622.2,93.7,622.2,94.4,622.1,94.8z M617.4,91c-0.1-2.9-0.8-5.3-2.2-7c-1.4-1.8-3.5-2.6-6.2-2.6
			c-2.7,0-4.8,0.9-6.3,2.7c-1.5,1.8-2.3,4.1-2.4,6.9H617.4z"/>
		<path class="st3" d="M652.6,77.6c1.8,0,3.6,0.3,5.3,0.8c1.7,0.6,3.2,1.3,4.5,2.3l-2,3.4c-2.2-1.6-4.8-2.5-7.8-2.5
			c-3.1,0-5.5,1-7.1,3.1c-1.6,2.1-2.4,4.8-2.4,8.3c0,3.4,0.8,6.1,2.4,8.2c1.6,2.1,4,3.1,7.1,3.1c2.6,0,5.3-0.8,7.9-2.5l1.8,3.4
			c-2.9,2.1-6.2,3.2-10,3.2c-3.3,0-6-0.7-8.1-2.2c-2.1-1.5-3.6-3.4-4.6-5.7c-0.9-2.3-1.4-4.8-1.4-7.5c0-4.7,1.3-8.4,3.9-11.2
			C644.5,79,648.1,77.6,652.6,77.6z"/>
		<path class="st3" d="M672.8,67v40.7H668V67H672.8z"/>
		<path class="st3" d="M708,93c0,3-0.6,5.7-1.8,8.1c-1.2,2.4-2.9,4.2-5.1,5.5c-2.2,1.3-4.8,2-7.9,2c-3,0-5.7-0.7-7.9-2
			c-2.2-1.3-3.9-3.2-5.1-5.5c-1.1-2.3-1.7-5-1.7-8c0-4.7,1.3-8.4,3.9-11.2c2.6-2.8,6.2-4.2,10.8-4.2c3.1,0,5.8,0.6,8,1.9
			c2.2,1.3,3.9,3.1,5,5.4C707.4,87.3,708,89.9,708,93z M683.7,93c0,3.5,0.8,6.3,2.4,8.4c1.6,2.1,4,3.2,7.2,3.2
			c3.3,0,5.7-1.1,7.3-3.2c1.6-2.1,2.4-4.9,2.4-8.4c0-3.5-0.8-6.3-2.4-8.3c-1.6-2.1-4-3.1-7.3-3.1c-3.3,0-5.7,1-7.2,3.1
			C684.4,86.7,683.7,89.5,683.7,93z"/>
		<path class="st3" d="M712.6,96.4V78.5h4.9v17.2c0,2.7,0.6,4.8,1.8,6.5c1.2,1.6,3,2.4,5.4,2.4c2.7,0,4.8-1,6.4-3
			c1.6-2,2.4-4.5,2.4-7.5V78.5h4.9v22.8c0,2.1,0.1,4.3,0.4,6.5h-4.7c-0.2-1.2-0.3-2.8-0.4-4.7h-0.1c-2.1,3.6-5.5,5.5-10.1,5.5
			c-3.6,0-6.4-1.1-8.2-3.4C713.5,102.9,712.6,100,712.6,96.4z"/>
		<path class="st3" d="M771.7,107.7h-4.5c-0.3-1.7-0.4-3.1-0.4-4.4h-0.1c-2.2,3.4-5.7,5.2-10.5,5.2c-4.1,0-7.3-1.4-9.5-4.3
			c-2.2-2.8-3.3-6.5-3.3-11.1c0-2.9,0.5-5.5,1.6-7.9c1.1-2.4,2.7-4.2,4.7-5.6c2-1.4,4.4-2,7.2-2c3.9,0,7.1,1.3,9.5,3.8V67h4.9v34.2
			C771.3,103.3,771.5,105.5,771.7,107.7z M766.4,95.1v-9.2c-1.1-1.5-2.4-2.5-3.9-3.2c-1.4-0.7-3.1-1.1-5-1.1c-2.8,0-5.1,1.1-6.7,3.2
			c-1.6,2.1-2.4,4.9-2.4,8.3c0,3.5,0.8,6.3,2.4,8.4c1.6,2.1,3.7,3.1,6.5,3.1c2.8,0,5-0.9,6.6-2.7C765.6,100.2,766.4,97.9,766.4,95.1
			z"/>
	</g>
</g>
</svg>
